<svg xmlns="http://www.w3.org/2000/svg" viewBox="0 0 296.04 248.7"><defs><style>.cls-1{fill:#111010;}</style></defs><g id="Layer_2" data-name="Layer 2"><g id="Layer_1-2" data-name="Layer 1"><path class="cls-1" d="M151.42,82.09a.48.48,0,0,0-.21,0l.2,0Z"/><path class="cls-1" d="M155.64,58.22s-.08,0,0,0Z"/><path class="cls-1" d="M157.2,52.47v0l.43-.08Z"/><path class="cls-1" d="M157.63,52.42l.43,0v0Z"/><path class="cls-1" d="M172.34,79.64a.74.74,0,0,1,.21,0,.46.46,0,0,0-.21.05Z"/><path class="cls-1" d="M183.77,113q-.72-7.82-1.21-13.83-.56-6.69-1-11.62t-.66-8.28c-.16-2.25-.3-4.14-.4-5.68s-.18-2.8-.24-3.76-.11-1.8-.18-2.5-.12-1.35-.17-2-.12-1.29-.21-2.09c-.37-3.07-.86-6.15-1.47-9.22a66.76,66.76,0,0,0-2.35-8.81,41.24,41.24,0,0,0-3.53-7.71,22.72,22.72,0,0,0-5-5.94,18.74,18.74,0,0,0-6.82-3.59,22.24,22.24,0,0,0-8.91-.54,21.27,21.27,0,0,0-8.93,2.94,19.71,19.71,0,0,0-6,5.81,26.35,26.35,0,0,0-3.48,8,53.85,53.85,0,0,0-1.54,9.46,77.65,77.65,0,0,0-.08,10.25c.2,3.52.5,7,.9,10.35.38,3.23.84,6.4,1.35,9.51s1,6.2,1.56,9.27,1,6.12,1.55,9.17.93,6.12,1.3,9.18c.18,1.52.37,3,.55,4.57.1.89.2,1.77.27,2.65a1.78,1.78,0,0,0,2,1.6l8.35-1.24.22,0a6.13,6.13,0,0,0,2.41-1c.4-.29,1.17-.78,1.08-1.31-.12-.7-.23-1.39-.34-2.09a12.7,12.7,0,0,0-.73-2.85,9.41,9.41,0,0,1-1-2.49c-.08-1.46-.27-2.94-.48-4.41,2.52.17,5,.23,7.55.16,1,0,2-.07,3.06-.18a24.38,24.38,0,0,0,4.72-1,23.28,23.28,0,0,0,3.39-1.28,7.49,7.49,0,0,0,.79-.47l.66,5.73c0,.23.11.46.14.69s0,.42,0,.64c.06.51.12,1,.2,1.54,0,.27.08.54.14.81a8.8,8.8,0,0,1,.26,1.13.57.57,0,0,0,.15.47c.07.06.16.07.22.15s.11.13.19.19a7.83,7.83,0,0,0,1.31.7,12,12,0,0,0,2.86.93,12.45,12.45,0,0,0,3.45.19l2.33-.19A1.78,1.78,0,0,0,183.77,113ZM167.48,87.23a9.87,9.87,0,0,1-2.88,1.2,58.12,58.12,0,0,1-8.41,2,21.5,21.5,0,0,1-6.1,0c-.29,0-.7-.18-1.13-.28,0-.43-.09-.86-.14-1.29L148,81.4c0-.24-.07-.48-.12-.71s-.17-.28-.27-.43a8,8,0,0,1-.5-3.66,1.45,1.45,0,0,1,0-.35c0-.13,0-.26,0-.39-.07-.47.31-.57.59-.85a4.64,4.64,0,0,1,.85-.59,4.51,4.51,0,0,1,1.15-.6,1.29,1.29,0,0,0,.4,0c.42-.18.61-.45,1.16-.68a2.7,2.7,0,0,0,1.23-1.87,2.43,2.43,0,0,0-.2-2c-.18-.32-.08-.58-.15-.89a12.72,12.72,0,0,1-.76-3.52,2.58,2.58,0,0,1,0-.68,1.93,1.93,0,0,1,0-.24c0-1.72.44-3.4.56-5.11,0-.22,0-.44,0-.65l-.27-.46a.36.36,0,0,1-.31-.44c0-.38-.09-.78-.13-1.17,0-1.43-.53-2.84-.31-4.3a1.74,1.74,0,0,1,1.46-2c.42-.11.84-.21,1.26-.28l.58-.1.59,0c.42,0,.86,0,1.28,0A1.75,1.75,0,0,1,158,51c.54,1.38.38,2.85.67,4.26.05.39.09.78.15,1.17a.37.37,0,0,1-.21.5l-.16.5c0,.21.09.43.13.64.51,1.64,1.32,3.17,1.71,4.85a1.55,1.55,0,0,0,.06.23,2.64,2.64,0,0,1,.17.67,12.59,12.59,0,0,1,.07,3.59c0,.32.16.54,0,.9a2.45,2.45,0,0,0,.26,2c.39.67.88,1.42,1.62,1.54s.83.31,1.28.39a1.35,1.35,0,0,0,.4,0,4,4,0,0,1,1.26.32,4.52,4.52,0,0,1,1,.38c.34.2.72.22.75.69l.09.38a1.38,1.38,0,0,1,.12.34,7.91,7.91,0,0,1,.34,3.68l-.17.47c0,.24,0,.48,0,.73l.87,7.55C168,86.66,167.82,87,167.48,87.23Z"/><path class="cls-1" d="M65.73,112.79a32.31,32.31,0,0,1-5,12.49,24.88,24.88,0,0,1-17.48,10.66,41.45,41.45,0,0,1-10.07.12,35.23,35.23,0,0,1-9.77-2.53,25.54,25.54,0,0,1-7.94-5.17,20.67,20.67,0,0,1-5-7.73,21.9,21.9,0,0,1-1-10.21,17.84,17.84,0,0,1,2.17-7.2,14.08,14.08,0,0,1,3.86-4.37,11.78,11.78,0,0,1,4.54-2,14.19,14.19,0,0,1,4.28-.25,14.55,14.55,0,0,1,4,1.09,11.22,11.22,0,0,1,3.69,2.5,10.68,10.68,0,0,1,2.48,4.21,14.6,14.6,0,0,1,.45,6.21s-.09.46-.25,1.26a8.75,8.75,0,0,1-1.1,2.66,10.53,10.53,0,0,1-2.43,2.78,6.25,6.25,0,0,1-1.52.93,2,2,0,0,0-.66,3.34,11.65,11.65,0,0,0,2,1.48,10.8,10.8,0,0,0,4.22,1.7,16.25,16.25,0,0,0,4.16-.16A13.3,13.3,0,0,0,43.89,123a12.5,12.5,0,0,0,3.87-3.53,12.08,12.08,0,0,0,2.1-6,18.86,18.86,0,0,0-.61-7.86,22.34,22.34,0,0,0-3.11-6.37,28.92,28.92,0,0,0-4.64-5.12c-1.75-1.52-3.46-2.9-5.13-4.16l-4-2.92a55.6,55.6,0,0,1-4.77-3.94A51.9,51.9,0,0,1,22.82,78a33,33,0,0,1-4.07-6.23,29.8,29.8,0,0,1-2.56-7.49,27.79,27.79,0,0,1-.3-8.8,29.36,29.36,0,0,1,3.87-12.13,27.53,27.53,0,0,1,7.43-8.17,26.48,26.48,0,0,1,9.57-4.35,30.06,30.06,0,0,1,10.37-.64,33.84,33.84,0,0,1,9.66,2.51,26.38,26.38,0,0,1,7.76,5,20.67,20.67,0,0,1,4.92,7,16.37,16.37,0,0,1,1.17,8.44,14.93,14.93,0,0,1-2.33,7.12,11.28,11.28,0,0,1-8.52,4.92,20.92,20.92,0,0,1-3.51,0,10.41,10.41,0,0,1-3.37-1,10.31,10.31,0,0,1-5.15-5.52,8.74,8.74,0,0,1-.49-4.3,24.32,24.32,0,0,1,.68-3,21.57,21.57,0,0,1,1.14-2.72,10.66,10.66,0,0,1,.8-1.33,2.08,2.08,0,0,0-.43-2.87l-.35-.25a11,11,0,0,0-1.83-1,11.29,11.29,0,0,0-1.82-.54l-.28,0a11.88,11.88,0,0,0-3.82.27,11.18,11.18,0,0,0-3.8,1.66,10.73,10.73,0,0,0-3,3.17,11.12,11.12,0,0,0-1.58,4.8,16.28,16.28,0,0,0,.36,6.06A17.16,17.16,0,0,0,36,63.93a37.87,37.87,0,0,0,5,5.65q3.12,2.92,7.52,6.48a77.06,77.06,0,0,1,8.79,8.09,39.89,39.89,0,0,1,5.79,7.95A27.91,27.91,0,0,1,66,100.33a30.68,30.68,0,0,1,.25,9c-.07.55-.13,1.11-.19,1.69A12.93,12.93,0,0,1,65.73,112.79Z"/><path class="cls-1" d="M81.27,21.37a2,2,0,0,1,2.21,1.74Q84.2,30.58,85,37.92c.27,2.63.55,5.26.84,7.91a2.84,2.84,0,0,0,5,1.53l0-.06A22.88,22.88,0,0,1,95.51,43a18.13,18.13,0,0,1,5.38-2.43l.26,0a13.87,13.87,0,0,1,8.18,1,17.12,17.12,0,0,1,6.46,5.61,35.2,35.2,0,0,1,4.7,9.62,82.28,82.28,0,0,1,3.07,13.07q1.93,12.23,2.94,23.77a141.41,141.41,0,0,1,.26,21.07,2,2,0,0,1-1.87,1.81h0a13.1,13.1,0,0,1-13.61-12.71c0-.5,0-1,0-1.49q-.26-6.78-.65-11.83-.48-5.89-1.18-10.75-1-6.14-1.85-10.68a38.65,38.65,0,0,0-2.11-7.42,9.19,9.19,0,0,0-3-4.13,4.92,4.92,0,0,0-1.3-.64A5.72,5.72,0,0,0,95.3,58.4a11,11,0,0,0-1.22,1.54,15.9,15.9,0,0,0-1.42,2.75,29.24,29.24,0,0,0-1.26,3.94,44,44,0,0,0-1,5.36A60.91,60.91,0,0,0,90,78.8c0,.1,0,.2,0,.3q.84,6.56,1.84,13t2,13q.65,4.06,1.31,8.21v.08a8.05,8.05,0,0,1-6.86,9.24l-4.46.6a1.93,1.93,0,0,1-2.19-1.73Q80.6,110.59,79.2,99.69,77.69,87.8,75.78,75.77q-2.1-13.18-4.61-26.15-2.33-11.94-5-24a1.94,1.94,0,0,1,1.62-2.34Z"/><path class="cls-1" d="M241.14,21a1.94,1.94,0,0,1,1.65,2.33c-.39,1.86-.77,3.74-1.12,5.64-.48,2.6-.94,5.19-1.4,7.78s-.89,5.09-1.3,7.52-.8,4.76-1.14,7q-1.23,7.7-2.27,14.89-1.29,7.64-2.19,15.14c-.61,5-1.33,9.76-2.16,14.25A88.47,88.47,0,0,1,228,107.92a29.05,29.05,0,0,1-5.31,9.59,19.74,19.74,0,0,1-8.48,5.77q-5.13,1.84-12.74,1a21.23,21.23,0,0,1-8.94-2.72,14.44,14.44,0,0,1-4.77-4.64,12.44,12.44,0,0,1-1.78-5.32,24.05,24.05,0,0,1,0-4.81,12.28,12.28,0,0,1,1.16-4,10.66,10.66,0,0,1,2.31-3.13,9.18,9.18,0,0,1,3.29-1.92,9.34,9.34,0,0,1,4.16-.37,9.71,9.71,0,0,1,7.07,4.15,10.29,10.29,0,0,1,1.53,3.51,11,11,0,0,1,.24,3.59,2.17,2.17,0,0,1,0,.25,7.45,7.45,0,0,1-.68,2,8.58,8.58,0,0,1-1.37,1.92,11.32,11.32,0,0,1-2.51,2,6.76,6.76,0,0,0,1.41.59,9.13,9.13,0,0,0,1.33.25,7.37,7.37,0,0,0,3.66-.59,10.69,10.69,0,0,0,3.78-2.76,19,19,0,0,0,3.23-5.09,28.12,28.12,0,0,0,2.07-7.6c.38-3.25.77-6.44,1.15-9.56.08-.59.15-1.19.23-1.81a2.74,2.74,0,0,0-4.31-2.57l-.06,0a21.17,21.17,0,0,1-5.21,2.85,14.89,14.89,0,0,1-5.3,1l-.3,0a14.73,14.73,0,0,1-8-3.36,18.55,18.55,0,0,1-5.12-7.52,37.19,37.19,0,0,1-2.24-11,79.09,79.09,0,0,1,.48-14,283.48,283.48,0,0,1,4.76-28.47,12,12,0,0,1,14.47-9.11l3.64.84a1,1,0,0,1,.69,1.21l-1.14,3.61c-.53,1.65-1,3.37-1.5,5.16S208,30.22,207.6,32s-.8,3.56-1.17,5.23q-1.23,5.64-2.29,11.48c-.07.38-.13.77-.17,1.15q-.66,5.82-.8,10.23a33.35,33.35,0,0,0,.51,7.77,9.93,9.93,0,0,0,2.24,4.84,4.08,4.08,0,0,0,.36.36,5.68,5.68,0,0,0,7.75-.34l.29-.29a22.22,22.22,0,0,0,1.93-2.41,31.71,31.71,0,0,0,2.14-3.64,52.75,52.75,0,0,0,2.25-5.18c.75-2,1.49-4.26,2.23-6.89a2.27,2.27,0,0,0,.06-.25c.51-3.32,1-6.36,1.35-9.11s.74-5.46,1-8c.35-3.08.63-6,.84-8.9V28a8.39,8.39,0,0,1,9.47-7.72Z"/><path class="cls-1" d="M258.22,119.44A21.25,21.25,0,0,1,248,114.07a22.56,22.56,0,0,1-5.65-9.46,37.87,37.87,0,0,1-1.53-12.7,73.72,73.72,0,0,1,2.17-15,82.6,82.6,0,0,1,5.76-16.52,46.49,46.49,0,0,1,8.08-12.05,25.79,25.79,0,0,1,10.05-6.69,20.1,20.1,0,0,1,11.66-.44,21.81,21.81,0,0,1,10.12,5.22,22.09,22.09,0,0,1,5.7,9.13A35.57,35.57,0,0,1,296,67.84a71.25,71.25,0,0,1-2.11,14.79q-1,4.07-2.62,8.72a77.07,77.07,0,0,1-3.91,9.16,61,61,0,0,1-5.19,8.48,32.54,32.54,0,0,1-6.56,6.73,22.08,22.08,0,0,1-8,3.85A19.39,19.39,0,0,1,258.22,119.44Zm21.5-45.25a79.76,79.76,0,0,0,1.67-8.79,29.92,29.92,0,0,0,.15-6.87,11,11,0,0,0-1.49-4.7,5.13,5.13,0,0,0-3.24-2.31A5.72,5.72,0,0,0,272,52.9a22.65,22.65,0,0,0-5.17,6.16,64.26,64.26,0,0,0-5.07,10.59,119.84,119.84,0,0,0-4.46,14.65,83.58,83.58,0,0,0-1.82,9.7,36,36,0,0,0-.22,7.56,12.47,12.47,0,0,0,1.42,5.13,4.86,4.86,0,0,0,3.15,2.42,5,5,0,0,0,4-.81,15.28,15.28,0,0,0,3.87-3.88,43.25,43.25,0,0,0,3.65-6.15c1.18-2.38,2.28-4.93,3.3-7.62s2-5.47,2.82-8.31S279.09,76.78,279.72,74.19Z"/><path class="cls-1" d="M96.79,216.78q-3-12-5.66-24.05-4.29-19.56-7.74-39-3.35-18.9-6-38.24a1,1,0,0,0-1.23-.87A17.63,17.63,0,0,0,62.6,136.34L64.31,143a2.09,2.09,0,0,1-2.83,2.44c-.48-.21-1-.39-1.42-.54a27.87,27.87,0,0,0-4.42-1.09,15.36,15.36,0,0,0-3.94,0l-.27,0a19.54,19.54,0,0,0-5.11,2,16.54,16.54,0,0,0-4.67,3.84,22.23,22.23,0,0,0-3.61,6A31.57,31.57,0,0,0,35.92,164a59.59,59.59,0,0,0-.23,11.11,94,94,0,0,0,2.15,14.17A94.2,94.2,0,0,0,44,208.76a46,46,0,0,0,7.42,11.67,18.08,18.08,0,0,0,7.77,5.31,14.5,14.5,0,0,0,7.15.46,1.89,1.89,0,0,0,.34-.09,14.36,14.36,0,0,0,4.86-3A28.23,28.23,0,0,0,75.84,218a19.13,19.13,0,0,0,1.25-2.12,2.08,2.08,0,0,1,3.9.57l.7,3.84A2.09,2.09,0,0,0,84.23,222l11-2.63A2.1,2.1,0,0,0,96.79,216.78Zm-21-20.08a33.46,33.46,0,0,1-.94,5.44,15.46,15.46,0,0,1-2.18,4.8,6.41,6.41,0,0,1-4,2.68,5.12,5.12,0,0,1-3.41-.49,9.74,9.74,0,0,1-3.51-3.51,36,36,0,0,1-3.53-7.4,96.42,96.42,0,0,1-3.38-12.17,76.79,76.79,0,0,1-2-13.55,34.6,34.6,0,0,1,.64-9A11.48,11.48,0,0,1,56,158.23a6.89,6.89,0,0,1,3.5-2.14,5.2,5.2,0,0,1,2.54.08,9.43,9.43,0,0,1,2.49,1.1,16.54,16.54,0,0,1,2.31,1.7c.55.49,1.09,1,1.61,1.45a2,2,0,0,1,.6,1Q72.2,174,75,186.66l1.11,5.06a2,2,0,0,1,0,.6C76.05,193.54,75.93,195,75.79,196.7Z"/><path class="cls-1" d="M140.12,171.78a14.77,14.77,0,0,0-2.21-5.77,10.46,10.46,0,0,0-3.17-3.06,8.09,8.09,0,0,0-3.31-1.1,10.11,10.11,0,0,0-2.7.07,12.26,12.26,0,0,0-2.61.94,10.89,10.89,0,0,0-3,2.12,9.9,9.9,0,0,0-2.24,3.5,9.14,9.14,0,0,0-.22,5.13,7.85,7.85,0,0,0,1.08,2.52,11.11,11.11,0,0,0,1.76,2,5.65,5.65,0,0,0,1.14.8,1.87,1.87,0,0,1,.44,3l0,0a8.53,8.53,0,0,1-1.84,1.41,9.1,9.1,0,0,1-2.3.9,5.14,5.14,0,0,1-3.66-.58,10.66,10.66,0,0,1-3.26-3,25.52,25.52,0,0,1-2.89-5.1,53.77,53.77,0,0,1-2-5.28,2,2,0,0,1,.94-2.33,47.14,47.14,0,0,0,9.84-7,41.44,41.44,0,0,0,7.52-9.24,30.63,30.63,0,0,0,3.77-9.79,24.6,24.6,0,0,0,0-9.48,22.75,22.75,0,0,0-3.41-8.54,19.44,19.44,0,0,0-5.76-5.61,19,19,0,0,0-7.36-2.68,23.83,23.83,0,0,0-13.82,2.1,19.09,19.09,0,0,0-5.13,3.65,23.69,23.69,0,0,0-4.2,5.64,29,29,0,0,0-2.78,7.87,47.82,47.82,0,0,0-.88,10.4,74.08,74.08,0,0,0,1.52,13.18A82.81,82.81,0,0,0,93.13,172,53.19,53.19,0,0,0,98,181.91a30.83,30.83,0,0,0,5.72,6.69,24.58,24.58,0,0,0,6.17,3.92,19.55,19.55,0,0,0,6.3,1.56,23.42,23.42,0,0,0,6.12-.35,25.17,25.17,0,0,0,8-3,22.31,22.31,0,0,0,6-5.09,18.29,18.29,0,0,0,3.47-6.54A15.16,15.16,0,0,0,140.12,171.78Zm-34.45-15.26-.24-1.21c-.72-3.67-1.3-7.23-1.71-10.67a51.69,51.69,0,0,1-.39-9.23,19.85,19.85,0,0,1,1.4-6.75,5.05,5.05,0,0,1,3.74-3.19,4.32,4.32,0,0,1,2.85.39,7.37,7.37,0,0,1,2.41,2,13.5,13.5,0,0,1,1.89,3.31,21.52,21.52,0,0,1,1.25,4.21,19.85,19.85,0,0,1,.19,6.74,23.87,23.87,0,0,1-1.91,6.52,28.13,28.13,0,0,1-3.69,6,32.34,32.34,0,0,1-2.53,2.83A1.93,1.93,0,0,1,105.67,156.52Z"/><path class="cls-1" d="M191.58,194.91a85.6,85.6,0,0,1-.85,12.48,28.61,28.61,0,0,1-3.39,10.15,19.1,19.1,0,0,1-7.12,7c-3.05,1.78-7.07,2.85-12,3.17a20.86,20.86,0,0,1-9.07-1,14,14,0,0,1-5.39-3.61,11.93,11.93,0,0,1-2.66-4.78,23.05,23.05,0,0,1-.85-4.62,11.71,11.71,0,0,1,.4-4.09,10.13,10.13,0,0,1,1.66-3.41,8.82,8.82,0,0,1,2.81-2.43,9.34,9.34,0,0,1,3.93-1.1,9.56,9.56,0,0,1,7.51,2.73,10.24,10.24,0,0,1,2.1,3.1,10.72,10.72,0,0,1,.86,3.39,2.44,2.44,0,0,1,0,.27,8.09,8.09,0,0,1-.3,2,8.44,8.44,0,0,1-1,2.08,10.8,10.8,0,0,1-2.06,2.34,5.88,5.88,0,0,0,1.47.33,9.54,9.54,0,0,0,1.31,0,7.29,7.29,0,0,0,3.41-1.22,10.46,10.46,0,0,0,3.14-3.31,18.68,18.68,0,0,0,2.19-5.46,27.7,27.7,0,0,0,.64-7.66c-.22-3.19-.41-6.32-.59-9.38-.06-1-.13-2-.18-3.11,0-.15,0-.3,0-.45a2,2,0,0,0-3.51-1.07,13.57,13.57,0,0,1-1,1.2,23.25,23.25,0,0,1-3.35,2.94q-.59.41-1.14.72a14.53,14.53,0,0,1-4.91,1.85,1.54,1.54,0,0,1-.3,0l-1,0A14,14,0,0,1,155,192.2a14.42,14.42,0,0,1-2.26-1.59,19.41,19.41,0,0,1-4-4.71,36.31,36.31,0,0,1-4.11-10.19,75.11,75.11,0,0,1-2-13.54,274.94,274.94,0,0,1-.5-28.13,11.77,11.77,0,0,1,12.28-11.34l3.38.15a1.19,1.19,0,0,1,1.13,1.37c-.17,1-.32,2.17-.47,3.34-.2,1.68-.37,3.42-.5,5.22s-.25,3.62-.32,5.43-.13,3.57-.19,5.23q-.18,5.88-.16,11.92a.66.66,0,0,0,0,.14c.26,4,.63,7.49,1.08,10.45a32.62,32.62,0,0,0,1.87,7.37,9.63,9.63,0,0,0,3,4.24,6.42,6.42,0,0,0,4.24,1.19,2.17,2.17,0,0,0,.5-.08,6.39,6.39,0,0,0,3.27-2.86,19.77,19.77,0,0,0,1.42-2.65,28.86,28.86,0,0,0,1.41-3.87,51.74,51.74,0,0,0,1.24-5.37q.55-3,.92-7a2.26,2.26,0,0,0,0-.26q-.14-4.91-.32-9t-.43-7.88q-.3-4.52-.77-8.69s0-.05,0-.08a8.16,8.16,0,0,1,7.69-9.09l5.4-.28a1.93,1.93,0,0,1,2,2c0,1.84-.06,3.69-.06,5.56,0,2.58,0,5.15,0,7.71s.05,5,.08,7.45.08,4.71.14,6.88q.19,7.6.47,14.69.11,6.06.42,12c0,1,.1,1.95.16,2.93.09,1.34.16,2.66.22,4C191.5,188.3,191.58,191.67,191.58,194.91Z"/><path class="cls-1" d="M129.41,209.08a389.44,389.44,0,0,0-59.25,35.18l.77,1.27a1.66,1.66,0,0,1-.38,2.1,4.64,4.64,0,0,1-2.91,1.07A4.31,4.31,0,0,1,64,246.57l-2.38-3.88a5.91,5.91,0,0,1,1.35-7.48,1.26,1.26,0,0,1,.82-.3,1.21,1.21,0,0,1,1,.6l2,3.28a395.48,395.48,0,0,1,60.38-35.91q10.75-5.17,21.42-9.48a15.1,15.1,0,0,0,2.25,1.6,14.07,14.07,0,0,0,7.21,1.84C147.6,200.75,138,205,129.41,209.08Z"/><path class="cls-1" d="M274.51,169.3a4,4,0,0,1,0,.59l-.55,5.73c-.29,2.94-2.63,5.22-5.24,5.08a1.36,1.36,0,0,1-1.19-1.57l.36-3.74c-24.78-2.55-49.61.73-72.33,6.64-.07-1.31-.14-2.63-.22-4-.06-1-.12-1.95-.17-2.93,1.36-.35,2.7-.68,4.05-1,24.45-5.89,47.76-7.77,69.33-5.58l.28-2.82a1.49,1.49,0,0,1,1.48-1.42A4.73,4.73,0,0,1,274.51,169.3Z"/><path class="cls-1" d="M16.36,164.17a4.69,4.69,0,0,1-3.87-3L7,146.41a4.68,4.68,0,0,1,5.87-6.07l8.53,2.89a6.53,6.53,0,0,1,3.9,8.81l-4.06,9.33a4.7,4.7,0,0,1-4.43,2.83ZM14,147.38l3,7.91,2.5-5.76a.2.2,0,0,0,0-.21.26.26,0,0,0-.15-.14Zm-3.21-1.09Z"/><path class="cls-1" d="M99,18.18c-4.52-.5-7.75-5-7.19-10S96.54-.46,101.06.05s7.74,5,7.19,10S103.56,18.69,99,18.18Zm1.32-11.89c-.92-.1-2.08.94-2.27,2.61s.72,2.94,1.64,3S101.82,11,102,9.33,101.29,6.39,100.36,6.29Z"/><path class="cls-1" d="M127.89,38.53h0a2.41,2.41,0,0,1-1.66-3.26c1.57-3.86,5.5-10.92,14-14A2.41,2.41,0,0,1,143.36,23V23a2.39,2.39,0,0,1-1.51,2.82c-6.78,2.46-9.92,8.17-11.15,11.22A2.43,2.43,0,0,1,127.89,38.53Z"/><path class="cls-1" d="M282.46,35.22a4.75,4.75,0,0,1-3.21-1.77l-4.53-5.67a4.8,4.8,0,0,1,.75-6.74l5.67-4.54a4.79,4.79,0,0,1,6.74.76l4.54,5.67a4.8,4.8,0,0,1-.76,6.74L286,34.2A4.73,4.73,0,0,1,282.46,35.22ZM280.55,25l2.68,3.35,3.35-2.68-2.68-3.35Z"/><circle class="cls-1" cx="4.1" cy="39.37" r="4.1"/><circle class="cls-1" cx="202.34" cy="7.98" r="4.1"/><circle class="cls-1" cx="268.12" cy="82.77" r="4.1"/><path class="cls-1" d="M246.39,154.74h-.2a3.07,3.07,0,0,1-2.66-1.9l-1.76-4.25-4.51-1a3.1,3.1,0,0,1-1.37-5.38l3.5-3-.48-4.58a3.1,3.1,0,0,1,4.69-3l3.93,2.41,4.2-1.88a3.1,3.1,0,0,1,4.27,3.55l-1.07,4.48,3.08,3.42a3.05,3.05,0,0,1,.58,3.21,3.1,3.1,0,0,1-2.63,1.94l-4.59.36-2.3,4A3.07,3.07,0,0,1,246.39,154.74Zm-3.93-6Zm-1.61-4.88,2.53.54a3.07,3.07,0,0,1,2.21,1.84l1,2.38,1.29-2.24a3.09,3.09,0,0,1,2.43-1.53l2.58-.21-1.73-1.92a3.09,3.09,0,0,1-.71-2.79l.6-2.51-2.36,1.05a3.1,3.1,0,0,1-2.87-.19l-2.21-1.35.27,2.58a3.08,3.08,0,0,1-1.06,2.67Zm10.83-9.1Z"/></g></g></svg>